<svg xmlns="http://www.w3.org/2000/svg" viewBox="0 0 1783.72 2045.43"><defs><style>.cls-1,.cls-4{fill-rule:evenodd;}.cls-2,.cls-4{fill:#fff;}.cls-3{fill:#0f0f0e;}</style></defs><g id="Capa_2" data-name="Capa 2"><g id="Objects"><path class="cls-1" d="M1146.42,1308l7.88-41.51,186.45,36.89-7.61,40.07a5.31,5.31,0,0,1-6.2,4.22l-176.3-33.48A5.3,5.3,0,0,1,1146.42,1308Z"/><path class="cls-2" d="M624.3,1097.17l6.64-33.72c6.42-32.55,36.4-54.06,67-48l254.85,50.23c30.56,6,50.14,37.3,43.73,69.85l-6.65,33.72c-6.41,32.55,13.17,63.82,43.73,69.84l344.06,67.82c30.56,6,50.14,37.29,43.73,69.85l-11.19,56.73c-6.41,32.55-36.39,54-67,48L167,1249.65c-30.57-6-50.15-37.29-43.73-69.84l11.18-56.73c6.42-32.56,36.4-54.06,67-48l355.9,70.15C587.9,1151.22,617.88,1129.72,624.3,1097.17Z"/><path class="cls-2" d="M14.76,1784.74,1281,2034.33a10.51,10.51,0,0,0,12.34-8.27l19.85-100.75A10.51,10.51,0,0,0,1305,1913L38.68,1663.39a10.49,10.49,0,0,0-12.34,8.27L6.48,1772.41A10.5,10.5,0,0,0,14.76,1784.74Z"/><rect x="435.41" y="918.08" width="557.27" height="1311.65" transform="translate(-968.24 1970.11) rotate(-78.85)"/><path class="cls-2" d="M359.18,1476.12c-40.47,198.66,87.79,392.51,286.45,433s392.5-87.79,433-286.43-87.79-392.51-286.44-433S399.64,1277.46,359.18,1476.12Z"/><path d="M427.64,1490.07c-32.76,160.84,71.07,317.8,231.92,350.56s317.81-71.07,350.57-231.93-71.07-317.8-231.92-350.57S460.4,1329.21,427.64,1490.07Z"/><path class="cls-2" d="M480.78,1500.89c-26.79,131.5,58.11,259.83,189.61,286.61S930.21,1729.4,957,1597.88s-58.11-259.81-189.62-286.61S507.56,1369.39,480.78,1500.89Z"/><path class="cls-3" d="M593.71,1532.42a122.81,122.81,0,1,0,144.86-95.83A122.8,122.8,0,0,0,593.71,1532.42Z"/><path class="cls-1" d="M129.25,1101.42c-13.23,59.85-52.93,23-57.91-16.65-2.37-18.88-.44-71.49.86-110.84-5.22.34-8.78-.08-9.14-1.78-1.49-7.15-1.58-52,1.9-55.93.5-.56,4.13-1.35,9.32-2.21,2.08-34.72-17.54-106.94-15.88-105.56,7.35,6.06,14.69,28.08,20.57,51.39-.49-49.69-1-114-1.22-187.55l36.92,1.55c-.15,2.36-.27,4.45-.34,6.23-3.54,83.44-.54,174.27,2.08,228.89,3,.16,5.09,1.54,5.17,3.53.42,10.16,1.53,36.41,2,46.84.11,2.54-2.81,5.13-6.9,6.13l-3,.72C126,1007.11,137.09,1066,129.25,1101.42Zm-15.47-59c-1.43-19.16-8.16-47.87-15.57-72.69-5.7,1.21-11.6,2.35-16.92,3.16-.06,34.35.17,91.6,2.41,103.37,8.28,43.7,21.36,50.82,28,37.29S116.26,1075.61,113.78,1042.4Z"/><path d="M13.4,600.66C14,547.43,17.06,488.47,23,422.92,31.53,328.43,82.74,164.86,146.8,0H358.58C316.71,88.51,285,160,279.71,179.43,253.1,276.85,182,600.2,182,600.2c-.67,3.19-1.27,6.39-1.8,9.65h0c-9.3,55.08,0,109.45-31,156.54-17.54,26.69-68.84,30.48-96.62,14.72-26.27-14.89-35.19-48.39-36.92-78.53-1.82-31.43-2.6-65.31-2.21-101.91Z"/><path class="cls-2" d="M162,55.41a1157.23,1157.23,0,0,0-83.37,231q-8.22,33.78-14.39,68c-1.82,10.06,13.6,14.41,15.44,4.26a1146.2,1146.2,0,0,1,68-232.68q13-31.63,28-62.4C180.2,54.4,166.47,46.13,162,55.41Z"/><path class="cls-2" d="M86.24,752.35c-30.58-6.75-39.46-41.21-45.91-67.44-2.46-10-17.91-5.77-15.44,4.26C32.74,721.1,45.4,759.72,82,767.79,92,770,96.31,754.58,86.24,752.35Z"/><path class="cls-3" d="M435.07,916.71l65.7,43.59q4.67,3.09,9.32,6.19c4.3,2.84,9.82,3.22,13.47-1,3-3.54,3.3-10.6-1-13.47l-65.7-43.59-9.32-6.19c-4.3-2.85-9.82-3.23-13.47,1-3,3.53-3.3,10.6,1,13.47Z"/><path class="cls-3" d="M721.2,713.18q8,35.7,15.91,71.39,1.13,5,2.24,10c1.13,5,7.84,7.32,12.24,5.72,5.36-1.94,6.85-7.18,5.72-12.23q-7.95-35.7-15.91-71.39-1.12-5-2.24-10.05c-1.13-5-7.84-7.32-12.24-5.72-5.35,1.94-6.85,7.18-5.72,12.23Z"/><path class="cls-3" d="M1071.55,769l-44.91,58.78-6.45,8.44c-3.13,4.1-3.05,10,1,13.47,3.74,3.22,10.32,3.09,13.47-1l44.91-58.79,6.44-8.43c3.13-4.1,3-10-1-13.47-3.74-3.22-10.32-3.09-13.46,1Z"/><path class="cls-3" d="M1263.71,1051.52l-66.63,19.36-9.53,2.76c-5,1.44-7.4,7.62-5.72,12.24,1.86,5.11,7.27,7.16,12.24,5.72l66.63-19.36,9.52-2.77c5-1.43,7.4-7.61,5.72-12.23-1.85-5.11-7.26-7.16-12.23-5.72Z"/><path class="cls-3" d="M1130.08,935.85l136.69-66.78c11.11-5.43,19.56,11.83,8.43,17.26l-136.68,66.78C1127.41,958.54,1119,941.28,1130.08,935.85Z"/><path class="cls-3" d="M614.93,856.28,507,749c-8.76-8.71-22.33,4.9-13.54,13.63L601.38,869.91C610.15,878.62,623.72,865,614.93,856.28Z"/><path class="cls-3" d="M877,792.13l34.25-148.22c2.78-12,21.51-7.75,18.72,4.32L895.71,796.45C892.93,808.5,874.2,804.2,877,792.13Z"/><path d="M719.27,1923a375.38,375.38,0,1,0-74.92-7.58A374.43,374.43,0,0,0,719.27,1923Zm-.77-734.32a363.73,363.73,0,0,1,72.38,7.33c194.87,39.69,321.12,230.53,281.44,425.42-34.09,167.32-182.56,288.76-353,288.76a362.79,362.79,0,0,1-72.36-7.33A360.69,360.69,0,0,1,365.46,1477.4C399.54,1310.07,548,1188.63,718.5,1188.63Z"/><path d="M.33,1775.08l8.91-45.2h0l92.66-470.1-16-3.19c-18.51-3.7-30.7-22.58-27.18-42.08,3.09-17.08,17.3-29.48,33.79-29.48a32.38,32.38,0,0,1,6.43.64l16.85,3.36,12.34-62.58c6.19-31.41,32.65-54.21,62.92-54.21a60.18,60.18,0,0,1,11.57,1.13l355.9,70.15a47.26,47.26,0,0,0,9.1.89c24.16,0,45.33-18.45,50.34-43.87l6.65-33.72c6.19-31.41,32.65-54.21,62.92-54.21a59.4,59.4,0,0,1,11.57,1.14L954,1064a60.72,60.72,0,0,1,39.92,27.86,68.06,68.06,0,0,1,8.85,49.51l-6.64,33.72a55.3,55.3,0,0,0,7.14,40.23,48,48,0,0,0,31.54,22.09l120.5,23.75,2.9-15.28a5.3,5.3,0,0,1,6.2-4.22l176.3,33.47a5.3,5.3,0,0,1,4.22,6.2l-3.15,16.59,37.08,7.3c34,6.7,55.87,41.41,48.78,77.38l-12.34,62.63,16.93,3.38c18.5,3.7,30.69,22.58,27.17,42.08-3.08,17.08-17.29,29.49-33.79,29.49a33.22,33.22,0,0,1-6.43-.64l-17.83-3.57L1299.8,2031.21a17.66,17.66,0,0,1-17.28,14.22,18,18,0,0,1-3.42-.34L14.21,1795.78A17.66,17.66,0,0,1,.33,1775.08Zm16.36,8.13,1264.89,249.31a4.85,4.85,0,0,0,5.65-3.79l19.54-99.13,84.5-428.73,30.42,6.09a20.84,20.84,0,0,0,3.92.39c10.29,0,19.2-8,21.18-19,2.29-12.68-5.37-24.9-17.08-27.23l-29.45-5.9,14.81-75.16c5.72-29-11.63-57-38.68-62.33L1032.33,1250a60.72,60.72,0,0,1-39.92-27.86,68.06,68.06,0,0,1-8.85-49.51l6.64-33.72a55.29,55.29,0,0,0-7.14-40.23,48,48,0,0,0-31.54-22.09l-254.85-50.23a46.46,46.46,0,0,0-9.09-.9c-24.17,0-45.34,18.46-50.35,43.88L630.58,1103c-6.19,31.41-32.65,54.21-62.92,54.21a61,61,0,0,1-11.57-1.14l-355.9-70.15a47.23,47.23,0,0,0-9.09-.89c-24.17,0-45.34,18.45-50.35,43.88l-14.82,75.19-29.45-5.89a20,20,0,0,0-3.92-.39c-10.29,0-19.2,8-21.18,19-2.29,12.68,5.37,24.9,17.08,27.24l28.48,5.69L24.19,1720.27h0l-11.3,57.29A4.82,4.82,0,0,0,16.69,1783.21Z"/><path class="cls-1" d="M1490.77,1235.63l-2.56-1.67c-3.52-2.31-5.41-5.73-4.46-8.09,3.89-9.68,13.7-34,17.49-43.49.73-1.85,3.21-2.44,6-1.61,20.7-50.61,53.83-135.24,78.33-215.07.52-1.7,1.11-3.71,1.76-6l35.31,10.85c-24.77,69.3-46.67,129.71-63.72,176.39,13.32-20,27.59-38.32,36.54-41.58,2-.74-40.57,60.79-50.19,94.21,4.61,2.55,7.76,4.51,8,5.19,2,4.87-13.07,47.12-16.87,53.37-.9,1.48-4.4.69-9.2-1.38-11.91,37.53-27.64,87.77-36.18,104.77-17.92,35.71-67.64,57.22-60.15-3.61C1435.39,1321.92,1465.49,1270.1,1490.77,1235.63Zm-47.3,139.56c1.74,15,16.46,12.63,38.84-25.8,6-10.35,25.36-64.25,36.76-96.65-4.74-2.53-9.93-5.58-14.89-8.63-15.27,20.93-31.2,45.76-38.93,63.34C1451.83,1337.92,1441.73,1360.22,1443.47,1375.19Z"/><path class="cls-4" d="M1428,1489.09l2.65.61c6.72,1.54,13.25-1.5,14.51-6.75l31.86-133.81c1.24-5.24-3.24-10.8-10-12.33l-2.65-.6c-6.73-1.54-13.25,1.5-14.5,6.75l-31.87,133.8C1416.83,1482,1421.31,1487.56,1428,1489.09Z"/><path d="M1760.36,0c28.25,251.19,35,605.54-2.87,753.73-16.06,63.15-35.63,127.93-52.74,178h0l-.32.94c-.08.22-.15.44-.22.65h0c-11.59,33.8-21,57.94-33,86.51-11.7,27.83-31.28,56.44-61,61.72-31.44,5.58-78.54-15.11-86.17-46.12-13.47-54.73,13.41-102.91,23-158h0c.53-3.2,1.06-6.39,1.46-9.65,0,0,40.86-328.54,48.25-429.29,2.6-35.71-18.32-253-42.88-438.57"/><path class="cls-2" d="M1715.24,59.24a1156.67,1156.67,0,0,1,19,244.86q-1,34.75-4.2,69.4c-.92,10.19-17,10.28-16,0a1146.54,1146.54,0,0,0-3.75-242.38c-2.77-22.64-6.3-45.19-10.45-67.62C1697.94,53.43,1713.37,49.11,1715.24,59.24Z"/><path class="cls-2" d="M1588,1046.36c30.58-6.75,39.46-41.21,45.91-67.44,2.46-10,17.91-5.76,15.44,4.26-7.85,31.93-20.51,70.55-57.09,78.63C1582.22,1064,1577.93,1048.59,1588,1046.36Z"/><path d="M1434.19,1496.51c8.45,0,15.54-5,17.24-12.07l31.86-133.82a14.84,14.84,0,0,0-2-11.32,20.29,20.29,0,0,0-12.77-8.74l-2.65-.6a22.17,22.17,0,0,0-4.92-.56c-8.45,0-15.54,5-17.24,12.07l-31.86,133.8a14.89,14.89,0,0,0,2,11.33,20.3,20.3,0,0,0,12.78,8.74l2.64.6A21.75,21.75,0,0,0,1434.19,1496.51Zm26.76-154.3a9.2,9.2,0,0,1,2.07.24l2.66.61a7.61,7.61,0,0,1,4.74,3,2.27,2.27,0,0,1,.41,1.59L1439,1481.46c-.26,1.07-2.16,2.23-4.78,2.23a9.73,9.73,0,0,1-2.07-.23l-2.64-.61a7.58,7.58,0,0,1-4.76-3,2.19,2.19,0,0,1-.4-1.59l31.86-133.8C1456.43,1343.37,1458.33,1342.21,1461,1342.21Z"/><polygon class="cls-2" points="266.02 1085.44 272.75 1086.78 272.77 1086.78 281.14 1088.46 291.01 1090.43 299.39 1092.11 309.27 1094.08 316.72 1095.58 317.64 1095.76 327.51 1097.73 335.89 1099.41 345.77 1101.39 354.15 1103.06 364.02 1105.04 372.4 1106.71 382.27 1108.69 390.65 1110.37 400.53 1112.34 408.9 1114.02 409.08 1114.05 418.77 1115.99 427.15 1117.67 437.03 1119.64 445.4 1121.32 459.78 1124.19 467.36 1082.19 452.36 1079.19 443.99 1077.51 434.12 1075.54 425.74 1073.86 415.86 1071.89 407.49 1070.21 397.61 1068.24 397.6 1068.24 389.23 1066.56 379.36 1064.59 370.98 1062.91 361.1 1060.93 352.73 1059.27 342.86 1057.29 334.48 1055.62 328.09 1054.34 324.6 1053.64 316.23 1051.97 306.35 1049.99 306.34 1049.99 297.97 1048.31 288.1 1046.34 279.72 1044.66 273.6 1043.43 266.02 1085.44"/><line x1="390.65" y1="1110.36" x2="382.27" y2="1108.69"/><line x1="372.4" y1="1106.71" x2="364.02" y2="1105.04"/><polygon points="432.96 1120.72 441.3 1122.53 448.96 1080.53 440.62 1078.71 432.96 1120.72"/><polygon points="414.77 1116.76 423.12 1118.58 430.78 1076.57 422.43 1074.76 414.77 1116.76"/><polygon points="396.58 1112.81 404.93 1114.62 412.59 1072.62 404.25 1070.8 396.58 1112.81"/><polygon points="378.39 1108.85 386.74 1110.67 394.39 1068.66 386.06 1066.85 378.39 1108.85"/><polygon points="360.2 1104.9 368.55 1106.71 376.21 1064.7 367.86 1062.89 360.2 1104.9"/><polyline points="350.37 1102.76 358.02 1060.75 349.68 1058.94 342.02 1100.94"/><polygon points="323.82 1096.98 332.18 1098.8 339.84 1056.81 331.49 1054.99 323.82 1096.98"/><polygon points="305.64 1093.03 313.07 1094.65 313.98 1094.85 321.64 1052.85 313.3 1051.03 305.64 1093.03"/><polygon points="287.45 1089.07 295.8 1090.89 303.45 1048.89 295.11 1047.08 287.45 1089.07"/><path d="M464.93,1131.75l9.85-54.61-206.33-41.27-9.85,54.62Zm-5-44.51-5.3,29.39-181.2-36.25,5.3-29.38Z"/><path class="cls-4" d="M90.8,1224.93l2.72.08c6.89.19,12.7-4.07,12.91-9.46l5.12-137.45c.19-5.39-5.28-10-12.18-10.15l-2.72-.08c-6.89-.19-12.7,4.07-12.9,9.46l-5.12,137.44C78.43,1220.17,83.91,1224.74,90.8,1224.93Z"/><path d="M98.28,1231c8.29-1.65,14.27-7.91,14.55-15.21L118,1078.34a14.88,14.88,0,0,0-4.17-10.72,20.29,20.29,0,0,0-14.23-6.08l-2.72-.07a22,22,0,0,0-4.94.42c-8.29,1.65-14.27,7.9-14.54,15.19l-5.12,137.46a14.8,14.8,0,0,0,4.16,10.71,20.27,20.27,0,0,0,14.24,6.08l2.7.08A22,22,0,0,0,98.28,1231Zm-3.89-156.55a9.63,9.63,0,0,1,2.08-.17l2.73.07a7.55,7.55,0,0,1,5.23,2,2.23,2.23,0,0,1,.72,1.47L100,1215.31c0,1.1-1.68,2.61-4.25,3.12a9,9,0,0,1-2.08.17l-2.71-.08a7.57,7.57,0,0,1-5.25-2A2.22,2.22,0,0,1,85,1215l5.12-137.45C90.19,1076.47,91.83,1075,94.39,1074.45Z"/><path d="M726.5,1135.54l148.18,29.21A33.92,33.92,0,0,0,914.51,1138l.88-4.5a33.91,33.91,0,0,0-26.71-39.83L740.5,1064.5a33.91,33.91,0,0,0-39.82,26.71l-.89,4.5A33.91,33.91,0,0,0,726.5,1135.54Z"/><path class="cls-2" d="M979.06,1832.82c51.77-38.41,91.15-93.38,111.62-154.45a322.89,322.89,0,0,0,12.91-53.29c.65-4.26,6-6.66,9.85-5.59,4.56,1.28,6.25,5.54,5.59,9.85-10.33,66.93-42,130.13-88.57,179.19a334.58,334.58,0,0,1-43.31,38.12c-3.5,2.6-8.91.55-11-2.87C973.76,1839.73,975.61,1835.39,979.06,1832.82Z"/><path class="cls-2" d="M322.08,1428.81c9.79-64.82,54.49-117.23,100.22-161.16,7.44-7.14,18.78,4.17,11.33,11.32-44,42.23-86.7,91.78-96.1,154.1-.65,4.27-6,6.66-9.85,5.59C323.1,1437.38,321.43,1433.12,322.08,1428.81Z"/><path class="cls-2" d="M175.79,1320.31l-57.47,240.93c-2.39,10-18,6.32-15.58-3.72l57.47-240.93C162.6,1306.57,178.18,1310.27,175.79,1320.31Z"/><path class="cls-2" d="M1349.83,1555.48l-57.47,240.93c-2.39,10-18,6.32-15.57-3.72l57.46-240.93C1336.65,1541.74,1352.23,1545.44,1349.83,1555.48Z"/><path class="cls-2" d="M625.51,1556.59c.48-8.35,7-16.42,16-16,8.27.37,16.53,7.06,16,16-.85,14.77,3.23,29.46,12.53,40.14,5.81,6.67,9.26,9.37,16.82,13.42a31.15,31.15,0,0,0,8.4,3.55q3.18,1,6.42,1.71c1.08.23,2.16.44,3.24.62l.71.07c8.31.88,16.43,6.74,16,16-.36,7.92-7.1,17-16,16-22.15-2.33-43.41-11.72-58.24-28.75C632.41,1602.12,624.19,1579.52,625.51,1556.59Z"/></g></g></svg>